<svg width="250" height="250" viewBox="0 0 250 250" fill="none" xmlns="http://www.w3.org/2000/svg">
<g clip-path="url(#clip0_209_9)">
<path d="M0 73C0 38.5875 0 21.3812 10.6906 10.6906C21.3812 0 38.5875 0 73 0H177C211.413 0 228.619 0 239.309 10.6906C250 21.3812 250 38.5875 250 73V177C250 211.413 250 228.619 239.309 239.309C228.619 250 211.413 250 177 250H73C38.5875 250 21.3812 250 10.6906 239.309C0 228.619 0 211.413 0 177V73Z" fill="#222222"/>
<g clip-path="url(#clip1_209_9)">
<g opacity="0.7" filter="url(#filter0_d_209_9)">
<path d="M173.396 174.28L188.876 65.56L205.616 67.72L190.316 176.62L173.396 174.28Z" fill="#E4E4DC"/>
</g>
<g opacity="0.7" filter="url(#filter1_d_209_9)">
<path d="M45.7793 166.9L52.9793 91.84L63.5993 84.46L102.839 95.08L140.819 84.46L151.619 92.38L155.399 167.26L138.479 168.16L135.059 103.9L110.399 110.56L110.759 167.44L94.0193 167.8L93.4793 110.38L68.9993 103.54L62.6993 168.34L45.7793 166.9Z" fill="#E4E4DC"/>
</g>
</g>
</g>
<defs>
<filter id="filter0_d_209_9" x="169.396" y="65.56" width="40.22" height="119.06" filterUnits="userSpaceOnUse" color-interpolation-filters="sRGB">
<feFlood flood-opacity="0" result="BackgroundImageFix"/>
<feColorMatrix in="SourceAlpha" type="matrix" values="0 0 0 0 0 0 0 0 0 0 0 0 0 0 0 0 0 0 127 0" result="hardAlpha"/>
<feOffset dy="4"/>
<feGaussianBlur stdDeviation="2"/>
<feComposite in2="hardAlpha" operator="out"/>
<feColorMatrix type="matrix" values="0 0 0 0 0 0 0 0 0 0 0 0 0 0 0 0 0 0 0.25 0"/>
<feBlend mode="normal" in2="BackgroundImageFix" result="effect1_dropShadow_209_9"/>
<feBlend mode="normal" in="SourceGraphic" in2="effect1_dropShadow_209_9" result="shape"/>
</filter>
<filter id="filter1_d_209_9" x="41.7793" y="84.46" width="117.62" height="91.88" filterUnits="userSpaceOnUse" color-interpolation-filters="sRGB">
<feFlood flood-opacity="0" result="BackgroundImageFix"/>
<feColorMatrix in="SourceAlpha" type="matrix" values="0 0 0 0 0 0 0 0 0 0 0 0 0 0 0 0 0 0 127 0" result="hardAlpha"/>
<feOffset dy="4"/>
<feGaussianBlur stdDeviation="2"/>
<feComposite in2="hardAlpha" operator="out"/>
<feColorMatrix type="matrix" values="0 0 0 0 0 0 0 0 0 0 0 0 0 0 0 0 0 0 0.25 0"/>
<feBlend mode="normal" in2="BackgroundImageFix" result="effect1_dropShadow_209_9"/>
<feBlend mode="normal" in="SourceGraphic" in2="effect1_dropShadow_209_9" result="shape"/>
</filter>
<clipPath id="clip0_209_9">
<rect width="250" height="250" fill="white"/>
</clipPath>
<clipPath id="clip1_209_9">
<rect width="169" height="120" fill="white" transform="translate(41 65)"/>
</clipPath>
</defs>
</svg>
